<svg version="1.1" id="Layer_1" xmlns="http://www.w3.org/2000/svg" xmlns:xlink="http://www.w3.org/1999/xlink" x="0px" y="0px"
	 width="100%" viewBox="0 0 2000 1413" enable-background="new 0 0 2000 1413" xml:space="preserve">
<path fill="#313B80" opacity="1.000000" stroke="none" 
	d="
M1995.000000,1414.000000 
	C1333.629028,1414.000000 672.258118,1414.000000 10.416169,1413.540894 
	C9.964586,1400.585815 10.001267,1388.089966 10.000826,1375.593994 
	C9.996490,1252.964233 9.982052,1130.334473 9.978300,1007.704712 
	C9.974569,885.740479 9.978473,763.776306 9.981448,641.812073 
	C9.986659,428.208038 9.993716,214.604019 10.000000,1.000000 
	C671.370911,1.000000 1332.741821,1.000000 1994.572388,1.465832 
	C1995.017578,53.082401 1994.995605,104.233139 1994.990479,155.383881 
	C1994.976196,298.506195 1994.963135,441.628540 1994.960083,584.750854 
	C1994.955322,806.184021 1994.956299,1027.617188 1994.961060,1249.050293 
	C1994.962158,1304.033569 1994.986450,1359.016724 1995.000000,1414.000000 
M1222.298462,639.337708 
	C1224.573486,640.375916 1226.848511,641.414124 1229.702271,642.025940 
	C1236.618896,645.293396 1242.325562,650.028198 1246.066528,656.711914 
	C1255.415894,673.415405 1256.595093,691.852051 1257.164062,711.421326 
	C1257.099609,727.579163 1256.999756,743.737000 1257.027466,759.894653 
	C1257.030151,761.445618 1257.824829,762.995300 1258.756226,764.647339 
	C1263.937378,767.926025 1262.898804,763.525513 1262.926636,761.084290 
	C1263.249023,732.828064 1262.680176,704.535828 1267.863159,676.550415 
	C1271.543701,656.676941 1282.754272,643.336853 1302.238403,638.090271 
	C1311.417603,635.618652 1321.175537,635.307556 1330.662109,633.955017 
	C1332.214111,633.733765 1333.719727,633.188477 1335.246826,632.793030 
	C1335.121826,632.279053 1334.996948,631.765076 1334.872070,631.251160 
	C1328.164307,630.481750 1321.428589,629.899048 1314.755371,628.898621 
	C1305.015991,627.438599 1295.596069,624.800964 1287.650757,618.669189 
	C1273.137573,607.468811 1268.484131,591.251221 1266.026489,574.221008 
	C1264.629272,564.539001 1264.231079,554.712769 1263.415161,544.832214 
	C1263.950439,542.114441 1264.935303,539.398926 1264.949463,536.678467 
	C1265.056641,516.046875 1264.998291,495.414185 1264.910522,474.782196 
	C1264.902222,472.832855 1264.655884,470.752258 1263.915649,468.985992 
	C1263.442505,467.857452 1261.826538,466.476501 1260.778076,466.520447 
	C1259.667847,466.567078 1258.096069,467.974670 1257.671021,469.134277 
	C1257.012207,470.931305 1257.002075,473.020569 1256.981079,474.988770 
	C1256.644775,506.461945 1256.350220,537.935547 1256.206177,570.277832 
	C1255.153198,576.642456 1254.788208,583.216614 1252.925903,589.334839 
	C1245.523560,613.652222 1234.632568,627.391541 1207.309937,629.273987 
	C1201.345947,629.684875 1195.368408,629.928406 1189.393188,630.133362 
	C1186.828491,630.221313 1184.977539,630.771973 1186.218994,634.413513 
	C1193.022827,635.279358 1199.825439,636.155273 1206.630859,637.007935 
	C1211.793091,637.654724 1216.958984,638.272034 1221.979858,638.744446 
	C1221.979858,638.744446 1222.135010,638.598022 1222.298462,639.337708 
M978.357788,469.594421 
	C977.908875,476.657837 977.178345,483.717041 977.073242,490.785553 
	C976.889160,503.161011 977.089050,515.542175 977.195435,528.881470 
	C976.547729,539.288025 976.220032,549.726868 975.175354,560.093445 
	C973.700317,574.730042 971.994507,589.358215 969.806580,603.902710 
	C968.440918,612.981567 966.005798,621.899597 963.421387,631.251160 
	C960.956543,638.033813 958.491699,644.816467 956.119263,651.697449 
	C956.119263,651.697449 956.032166,651.800415 955.449585,652.261597 
	C954.815979,653.548645 954.182312,654.835693 954.008118,656.689087 
	C948.186096,670.474243 940.444519,682.889893 926.067993,688.942627 
	C912.711853,694.565735 899.231140,700.536255 885.210327,703.790771 
	C862.539917,709.052979 839.200806,709.669067 815.195557,709.156189 
	C814.511963,709.866272 813.828430,710.576294 813.144836,711.286377 
	C814.405579,712.177795 815.671692,713.844788 816.926208,713.836121 
	C825.787781,713.775085 834.646973,713.370056 844.360596,712.854675 
	C851.630493,713.538879 859.003113,713.676514 866.149109,715.019836 
	C881.619507,717.927917 897.398926,720.192505 912.219666,725.189087 
	C921.434570,728.295837 929.307983,735.671082 937.450500,741.588745 
	C945.756714,747.625366 950.279785,756.529358 954.340210,766.216064 
	C954.443054,766.533997 954.617615,766.805847 955.141174,767.393799 
	C955.141174,767.393799 955.053711,767.841370 955.253723,768.485474 
	C955.538086,769.079346 955.822510,769.673218 956.129150,770.344177 
	C956.129150,770.344177 956.054077,770.372253 956.064209,771.257263 
	C958.005981,776.507141 959.947693,781.756958 962.375549,787.677063 
	C963.994080,793.930847 966.306946,800.097961 967.101013,806.454712 
	C969.480957,825.507385 974.167664,844.194275 974.457092,863.611023 
	C974.768799,884.514648 976.948730,905.383850 977.915344,926.286499 
	C978.545715,939.918335 978.532349,953.582214 978.686035,967.233093 
	C978.836121,980.555969 978.767456,993.881470 978.970276,1007.203125 
	C978.998474,1009.058533 980.030396,1010.898560 980.597656,1012.745728 
	C981.277954,1010.994141 982.442688,1009.271790 982.550659,1007.485596 
	C982.921875,1001.345032 982.923401,995.182007 983.655945,988.425781 
	C983.777649,986.621216 984.001770,984.816711 984.003967,983.012024 
	C984.015320,973.599121 983.970215,964.186218 983.689514,953.934509 
	C984.063110,946.960754 984.518799,939.990112 984.790039,933.012390 
	C985.151733,923.704529 985.163208,914.379272 985.695801,905.082703 
	C986.637268,888.652344 987.789124,872.232971 988.995544,855.819458 
	C989.506287,848.871277 990.377625,841.949524 991.616638,834.462952 
	C993.308594,826.835205 995.166565,819.239075 996.628296,811.567444 
	C997.463989,807.181824 997.654419,802.673218 997.987793,797.465027 
	C1002.236816,779.657104 1008.142883,762.617188 1018.989441,747.505005 
	C1026.618164,736.876099 1037.173218,729.722290 1048.701294,725.431702 
	C1066.284790,718.887268 1085.145874,717.049805 1103.904053,715.822388 
	C1117.680420,714.921021 1131.448853,713.894714 1145.229126,713.061401 
	C1148.610107,712.856995 1148.853882,711.570068 1146.576416,708.487793 
	C1144.797119,708.310608 1143.018555,707.988708 1141.238525,707.981445 
	C1133.875854,707.951538 1126.512695,708.016785 1118.551880,708.215881 
	C1118.360107,708.137634 1118.168457,708.059387 1117.434570,707.451355 
	C1113.367065,707.376465 1109.299683,707.301636 1104.278320,707.254272 
	C1100.148560,706.796875 1096.017334,706.351929 1091.889282,705.879822 
	C1077.243530,704.204834 1062.347656,703.587830 1049.018555,696.156616 
	C1042.115234,692.307861 1034.349121,689.369690 1028.615234,684.198792 
	C1018.013062,674.637390 1011.952209,661.732605 1007.081360,648.435669 
	C1004.302551,640.849854 1001.787109,633.159485 999.407227,625.437866 
	C997.362305,618.803284 995.028870,612.157776 993.976318,605.339050 
	C992.079102,593.048889 990.769653,580.649170 989.707458,568.252991 
	C987.607727,543.748169 985.137512,519.243591 984.130737,494.685150 
	C983.019958,467.589203 983.397888,440.432800 983.059082,413.303589 
	C983.034607,411.346588 982.453552,409.396576 982.131226,407.443298 
	C981.554749,407.472321 980.978210,407.501312 980.401672,407.530334 
	C980.170898,410.563843 979.789917,413.594604 979.734192,416.631317 
	C979.413818,434.096283 979.170593,451.562714 978.357788,469.594421 
z"/>
<path fill="#1A1A1D" opacity="1.000000" stroke="none" 
	d="
M9.524239,1.000000 
	C9.993716,214.604019 9.986659,428.208038 9.981448,641.812073 
	C9.978473,763.776306 9.974569,885.740479 9.978300,1007.704712 
	C9.982052,1130.334473 9.996490,1252.964233 10.000826,1375.593994 
	C10.001267,1388.089966 9.964586,1400.585815 9.972566,1413.540894 
	C7.000947,1414.000000 4.001893,1414.000000 1.025609,1414.000000 
	C1.025609,943.000000 1.025609,472.000000 1.025609,1.000000 
	C3.716972,1.000000 6.382724,1.000000 9.524239,1.000000 
z"/>
<path fill="#262529" opacity="1.000000" stroke="none" 
	d="
M1995.416626,1414.000000 
	C1994.986450,1359.016724 1994.962158,1304.033569 1994.961060,1249.050293 
	C1994.956299,1027.617188 1994.955322,806.184021 1994.960083,584.750854 
	C1994.963135,441.628540 1994.976196,298.506195 1994.990479,155.383881 
	C1994.995605,104.233139 1995.017578,53.082401 1995.015991,1.465832 
	C1996.388916,1.000000 1997.777832,1.000000 1999.507935,1.451021 
	C1999.843262,2.401862 1999.832275,2.901682 1999.832275,3.401502 
	C1999.832153,472.105530 1999.833008,940.809509 1999.840576,1409.513550 
	C1999.840576,1411.009033 1999.944580,1412.504517 2000.000000,1414.000000 
	C1998.611084,1414.000000 1997.222168,1414.000000 1995.416626,1414.000000 
z"/>
<path fill="#FDFDFD" opacity="1.000000" stroke="none" 
	d="
M2000.500000,1414.000000 
	C1999.944580,1412.504517 1999.840576,1411.009033 1999.840576,1409.513550 
	C1999.833008,940.809509 1999.832153,472.105530 1999.832275,3.401502 
	C1999.832275,2.901682 1999.843262,2.401862 1999.924561,1.451011 
	C2000.333374,1.166646 2000.943970,1.315887 2000.955566,1.502769 
	C2001.039062,2.830878 2001.000000,4.166667 2001.000000,5.500000 
	C2001.000000,475.000000 2001.000000,944.500000 2000.500000,1414.000000 
z"/>
<path fill="#FDFDFD" opacity="1.000000" stroke="none" 
	d="
M1117.976685,707.981140 
	C1118.168457,708.059387 1118.360107,708.137634 1119.200195,708.299927 
	C1128.976807,708.619690 1138.104858,708.855408 1147.233032,709.091125 
	C1148.853882,711.570068 1148.610107,712.856995 1145.229126,713.061401 
	C1131.448853,713.894714 1117.680420,714.921021 1103.904053,715.822388 
	C1085.145874,717.049805 1066.284790,718.887268 1048.701294,725.431702 
	C1037.173218,729.722290 1026.618164,736.876099 1018.989441,747.505005 
	C1008.142883,762.617188 1002.236816,779.657104 997.938049,798.173828 
	C995.620483,810.927002 993.352722,822.971375 991.084961,835.015747 
	C990.377625,841.949524 989.506287,848.871277 988.995544,855.819458 
	C987.789124,872.232971 986.637268,888.652344 985.695801,905.082703 
	C985.163208,914.379272 985.151733,923.704529 984.790039,933.012390 
	C984.518799,939.990112 984.063110,946.960754 983.627075,954.739746 
	C983.398376,966.705872 983.232117,977.866760 983.065796,989.027588 
	C982.923401,995.182007 982.921875,1001.345032 982.550659,1007.485596 
	C982.442688,1009.271790 981.277954,1010.994141 980.597656,1012.745728 
	C980.030396,1010.898560 978.998474,1009.058533 978.970276,1007.203125 
	C978.767456,993.881470 978.836121,980.555969 978.686035,967.233093 
	C978.532349,953.582214 978.545715,939.918335 977.915344,926.286499 
	C976.948730,905.383850 974.768799,884.514648 974.457092,863.611023 
	C974.167664,844.194275 969.480957,825.507385 967.101013,806.454712 
	C966.306946,800.097961 963.994080,793.930847 962.144043,786.947449 
	C959.959717,780.935974 958.006897,775.654114 956.054077,770.372253 
	C956.054077,770.372253 956.129150,770.344177 956.087036,769.954224 
	C955.714600,768.989929 955.384155,768.415649 955.053711,767.841370 
	C955.053711,767.841370 955.141174,767.393799 955.004211,766.939453 
	C954.608276,766.255615 954.349243,766.026123 954.090271,765.796631 
	C950.279785,756.529358 945.756714,747.625366 937.450500,741.588745 
	C929.307983,735.671082 921.434570,728.295837 912.219666,725.189087 
	C897.398926,720.192505 881.619507,717.927917 866.149109,715.019836 
	C859.003113,713.676514 851.630493,713.538879 843.595581,712.847473 
	C834.888000,712.684570 826.942505,712.608215 819.005371,712.309875 
	C817.305908,712.245972 813.948975,712.946289 815.916870,709.053833 
	C839.200806,709.669067 862.539917,709.052979 885.210327,703.790771 
	C899.231140,700.536255 912.711853,694.565735 926.067993,688.942627 
	C940.444519,682.889893 948.186096,670.474243 954.132446,656.289551 
	C954.848633,654.526794 955.440369,653.163574 956.032166,651.800415 
	C956.032166,651.800415 956.119263,651.697449 956.370544,651.419800 
	C959.098022,644.391357 961.574280,637.640564 964.050537,630.889771 
	C966.005798,621.899597 968.440918,612.981567 969.806580,603.902710 
	C971.994507,589.358215 973.700317,574.730042 975.175354,560.093445 
	C976.220032,549.726868 976.547729,539.288025 977.279297,528.145752 
	C977.875854,507.949554 978.388489,488.489105 978.901184,469.028625 
	C979.170593,451.562714 979.413818,434.096283 979.734192,416.631317 
	C979.789917,413.594604 980.170898,410.563843 980.401672,407.530334 
	C980.978210,407.501312 981.554749,407.472321 982.131226,407.443298 
	C982.453552,409.396576 983.034607,411.346588 983.059082,413.303589 
	C983.397888,440.432800 983.019958,467.589203 984.130737,494.685150 
	C985.137512,519.243591 987.607727,543.748169 989.707458,568.252991 
	C990.769653,580.649170 992.079102,593.048889 993.976318,605.339050 
	C995.028870,612.157776 997.362305,618.803284 999.407227,625.437866 
	C1001.787109,633.159485 1004.302551,640.849854 1007.081360,648.435669 
	C1011.952209,661.732605 1018.013062,674.637390 1028.615234,684.198792 
	C1034.349121,689.369690 1042.115234,692.307861 1049.018555,696.156616 
	C1062.347656,703.587830 1077.243530,704.204834 1091.889282,705.879822 
	C1096.017334,706.351929 1100.148560,706.796875 1104.988281,707.315186 
	C1109.791138,707.577820 1113.883911,707.779480 1117.976685,707.981140 
z"/>
<path fill="#FBFBFB" opacity="1.000000" stroke="none" 
	d="
M1263.383057,544.951477 
	C1264.231079,554.712769 1264.629272,564.539001 1266.026489,574.221008 
	C1268.484131,591.251221 1273.137573,607.468811 1287.650757,618.669189 
	C1295.596069,624.800964 1305.015991,627.438599 1314.755371,628.898621 
	C1321.428589,629.899048 1328.164307,630.481750 1334.872070,631.251160 
	C1334.996948,631.765076 1335.121826,632.279053 1335.246826,632.793030 
	C1333.719727,633.188477 1332.214111,633.733765 1330.662109,633.955017 
	C1321.175537,635.307556 1311.417603,635.618652 1302.238403,638.090271 
	C1282.754272,643.336853 1271.543701,656.676941 1267.863159,676.550415 
	C1262.680176,704.535828 1263.249023,732.828064 1262.926636,761.084290 
	C1262.898804,763.525513 1263.937378,767.926025 1258.594482,764.080078 
	C1258.301270,747.886841 1258.205444,732.260315 1257.995850,716.635376 
	C1257.968018,714.556824 1257.363647,712.486023 1257.026367,710.411621 
	C1256.595093,691.852051 1255.415894,673.415405 1246.066528,656.711914 
	C1242.325562,650.028198 1236.618896,645.293396 1229.291260,641.877869 
	C1226.631836,640.685852 1224.383423,639.641907 1222.135010,638.598022 
	C1222.135010,638.598022 1221.979858,638.744446 1221.932739,638.471680 
	C1210.113281,633.662109 1197.740601,634.219849 1185.470459,633.906860 
	C1184.977539,630.771973 1186.828491,630.221313 1189.393188,630.133362 
	C1195.368408,629.928406 1201.345947,629.684875 1207.309937,629.273987 
	C1234.632568,627.391541 1245.523560,613.652222 1252.925903,589.334839 
	C1254.788208,583.216614 1255.153198,576.642456 1256.306396,569.544373 
	C1257.218750,545.913330 1258.105591,523.017944 1258.807373,500.117004 
	C1259.092285,490.816620 1258.907593,481.502350 1259.124512,472.198761 
	C1259.151855,471.027374 1260.328979,469.882812 1260.973389,468.725800 
	C1261.781250,469.898132 1263.173340,471.018127 1263.283813,472.252869 
	C1263.578613,475.546143 1263.287231,478.888733 1263.290649,482.211670 
	C1263.312134,503.124939 1263.350342,524.038208 1263.383057,544.951477 
z"/>
<path fill="#262529" opacity="1.000000" stroke="none" 
	d="
M1263.399170,544.891846 
	C1263.350342,524.038208 1263.312134,503.124939 1263.290649,482.211670 
	C1263.287231,478.888733 1263.578613,475.546143 1263.283813,472.252869 
	C1263.173340,471.018127 1261.781250,469.898132 1260.973389,468.725800 
	C1260.328979,469.882812 1259.151855,471.027374 1259.124512,472.198761 
	C1258.907593,481.502350 1259.092285,490.816620 1258.807373,500.117004 
	C1258.105591,523.017944 1257.218750,545.913330 1256.226318,569.109985 
	C1256.350220,537.935547 1256.644775,506.461945 1256.981079,474.988770 
	C1257.002075,473.020569 1257.012207,470.931305 1257.671021,469.134277 
	C1258.096069,467.974670 1259.667847,466.567078 1260.778076,466.520447 
	C1261.826538,466.476501 1263.442505,467.857452 1263.915649,468.985992 
	C1264.655884,470.752258 1264.902222,472.832855 1264.910522,474.782196 
	C1264.998291,495.414185 1265.056641,516.046875 1264.949463,536.678467 
	C1264.935303,539.398926 1263.950439,542.114441 1263.399170,544.891846 
z"/>
<path fill="#262529" opacity="1.000000" stroke="none" 
	d="
M978.629517,469.311523 
	C978.388489,488.489105 977.875854,507.949554 977.245605,527.665466 
	C977.089050,515.542175 976.889160,503.161011 977.073242,490.785553 
	C977.178345,483.717041 977.908875,476.657837 978.629517,469.311523 
z"/>
<path fill="#262529" opacity="1.000000" stroke="none" 
	d="
M991.350830,834.739380 
	C993.352722,822.971375 995.620483,810.927002 998.011841,798.551270 
	C997.654419,802.673218 997.463989,807.181824 996.628296,811.567444 
	C995.166565,819.239075 993.308594,826.835205 991.350830,834.739380 
z"/>
<path fill="#262529" opacity="1.000000" stroke="none" 
	d="
M815.556213,709.104980 
	C813.948975,712.946289 817.305908,712.245972 819.005371,712.309875 
	C826.942505,712.608215 834.888000,712.684570 843.168701,712.957520 
	C834.646973,713.370056 825.787781,713.775085 816.926208,713.836121 
	C815.671692,713.844788 814.405579,712.177795 813.144836,711.286377 
	C813.828430,710.576294 814.511963,709.866272 815.556213,709.104980 
z"/>
<path fill="#262529" opacity="1.000000" stroke="none" 
	d="
M1185.844727,634.160156 
	C1197.740601,634.219849 1210.113281,633.662109 1222.004395,638.550659 
	C1216.958984,638.272034 1211.793091,637.654724 1206.630859,637.007935 
	C1199.825439,636.155273 1193.022827,635.279358 1185.844727,634.160156 
z"/>
<path fill="#262529" opacity="1.000000" stroke="none" 
	d="
M1257.095215,710.916504 
	C1257.363647,712.486023 1257.968018,714.556824 1257.995850,716.635376 
	C1258.205444,732.260315 1258.301270,747.886841 1258.342285,764.029175 
	C1257.824829,762.995300 1257.030151,761.445618 1257.027466,759.894653 
	C1256.999756,743.737000 1257.099609,727.579163 1257.095215,710.916504 
z"/>
<path fill="#262529" opacity="1.000000" stroke="none" 
	d="
M1146.904785,708.789429 
	C1138.104858,708.855408 1128.976807,708.619690 1119.499268,708.215515 
	C1126.512695,708.016785 1133.875854,707.951538 1141.238525,707.981445 
	C1143.018555,707.988708 1144.797119,708.310608 1146.904785,708.789429 
z"/>
<path fill="#262529" opacity="1.000000" stroke="none" 
	d="
M963.735962,631.070435 
	C961.574280,637.640564 959.098022,644.391357 956.324341,651.370605 
	C958.491699,644.816467 960.956543,638.033813 963.735962,631.070435 
z"/>
<path fill="#262529" opacity="1.000000" stroke="none" 
	d="
M983.360840,988.726685 
	C983.232117,977.866760 983.398376,966.705872 983.754700,955.159180 
	C983.970215,964.186218 984.015320,973.599121 984.003967,983.012024 
	C984.001770,984.816711 983.777649,986.621216 983.360840,988.726685 
z"/>
<path fill="#262529" opacity="1.000000" stroke="none" 
	d="
M956.059143,770.814758 
	C958.006897,775.654114 959.959717,780.935974 961.901001,786.612305 
	C959.947693,781.756958 958.005981,776.507141 956.059143,770.814758 
z"/>
<path fill="#262529" opacity="1.000000" stroke="none" 
	d="
M1117.705566,707.716248 
	C1113.883911,707.779480 1109.791138,707.577820 1105.465332,707.301453 
	C1109.299683,707.301636 1113.367065,707.376465 1117.705566,707.716248 
z"/>
<path fill="#262529" opacity="1.000000" stroke="none" 
	d="
M1222.216797,638.967896 
	C1224.383423,639.641907 1226.631836,640.685852 1229.001953,642.091064 
	C1226.848511,641.414124 1224.573486,640.375916 1222.216797,638.967896 
z"/>
<path fill="#262529" opacity="1.000000" stroke="none" 
	d="
M955.740845,652.031006 
	C955.440369,653.163574 954.848633,654.526794 953.902771,656.006348 
	C954.182312,654.835693 954.815979,653.548645 955.740845,652.031006 
z"/>
<path fill="#262529" opacity="1.000000" stroke="none" 
	d="
M955.153687,768.163452 
	C955.384155,768.415649 955.714600,768.989929 956.075928,769.915649 
	C955.822510,769.673218 955.538086,769.079346 955.153687,768.163452 
z"/>
<path fill="#262529" opacity="1.000000" stroke="none" 
	d="
M954.215210,766.006348 
	C954.349243,766.026123 954.608276,766.255615 954.865601,766.758362 
	C954.617615,766.805847 954.443054,766.533997 954.215210,766.006348 
z"/>
</svg>